<svg width="53" height="53" viewBox="0 0 53 53" fill="none" xmlns="http://www.w3.org/2000/svg">
<path d="M26.5 30.9167C24.6597 30.9167 23.0955 30.2726 21.8073 28.9844C20.5191 27.6962 19.875 26.1319 19.875 24.2917V11.0417C19.875 9.20139 20.5191 7.63715 21.8073 6.34896C23.0955 5.06077 24.6597 4.41667 26.5 4.41667C28.3403 4.41667 29.9045 5.06077 31.1927 6.34896C32.4809 7.63715 33.125 9.20139 33.125 11.0417V24.2917C33.125 26.1319 32.4809 27.6962 31.1927 28.9844C29.9045 30.2726 28.3403 30.9167 26.5 30.9167ZM24.2917 46.375V39.5844C20.4639 39.0691 17.2986 37.3576 14.7958 34.45C12.293 31.5424 11.0417 28.1563 11.0417 24.2917H15.4583C15.4583 27.3465 16.5349 29.9505 18.688 32.1036C20.8411 34.2568 23.4451 35.3333 26.5 35.3333C29.5549 35.3333 32.1588 34.2568 34.312 32.1036C36.4651 29.9505 37.5417 27.3465 37.5417 24.2917H41.9583C41.9583 28.1563 40.7069 31.5424 38.2042 34.45C35.7014 37.3576 32.5361 39.0691 28.7083 39.5844V46.375H24.2917Z" fill="#1D1B20"/>
</svg>
