<svg width="48" height="48" viewBox="0 0 48 48" fill="none" xmlns="http://www.w3.org/2000/svg">
<path d="M38 42L24 28L19.3 32.7C19.5667 33.2 19.75 33.7333 19.85 34.3C19.95 34.8667 20 35.4333 20 36C20 38.2 19.2167 40.0833 17.65 41.65C16.0833 43.2167 14.2 44 12 44C9.8 44 7.91667 43.2167 6.35 41.65C4.78333 40.0833 4 38.2 4 36C4 33.8 4.78333 31.9167 6.35 30.35C7.91667 28.7833 9.8 28 12 28C12.5667 28 13.1333 28.05 13.7 28.15C14.2667 28.25 14.8 28.4333 15.3 28.7L20 24L15.3 19.3C14.8 19.5667 14.2667 19.75 13.7 19.85C13.1333 19.95 12.5667 20 12 20C9.8 20 7.91667 19.2167 6.35 17.65C4.78333 16.0833 4 14.2 4 12C4 9.8 4.78333 7.91667 6.35 6.35C7.91667 4.78333 9.8 4 12 4C14.2 4 16.0833 4.78333 17.65 6.35C19.2167 7.91667 20 9.8 20 12C20 12.5667 19.95 13.1333 19.85 13.7C19.75 14.2667 19.5667 14.8 19.3 15.3L44 40V42H38ZM30 22L26 18L38 6H44V8L30 22ZM12 16C13.1 16 14.0417 15.6083 14.825 14.825C15.6083 14.0417 16 13.1 16 12C16 10.9 15.6083 9.95833 14.825 9.175C14.0417 8.39167 13.1 8 12 8C10.9 8 9.95833 8.39167 9.175 9.175C8.39167 9.95833 8 10.9 8 12C8 13.1 8.39167 14.0417 9.175 14.825C9.95833 15.6083 10.9 16 12 16ZM24 25C24.2667 25 24.5 24.9 24.7 24.7C24.9 24.5 25 24.2667 25 24C25 23.7333 24.9 23.5 24.7 23.3C24.5 23.1 24.2667 23 24 23C23.7333 23 23.5 23.1 23.3 23.3C23.1 23.5 23 23.7333 23 24C23 24.2667 23.1 24.5 23.3 24.7C23.5 24.9 23.7333 25 24 25ZM12 40C13.1 40 14.0417 39.6083 14.825 38.825C15.6083 38.0417 16 37.1 16 36C16 34.9 15.6083 33.9583 14.825 33.175C14.0417 32.3917 13.1 32 12 32C10.9 32 9.95833 32.3917 9.175 33.175C8.39167 33.9583 8 34.9 8 36C8 37.1 8.39167 38.0417 9.175 38.825C9.95833 39.6083 10.9 40 12 40Z" fill="white"/>
</svg>
